<svg xmlns="http://www.w3.org/2000/svg" viewBox="0 0 168 90"><g fill="#D4A08A" transform="translate(0,90) scale(0.5,-0.5)"><path d="M183 148 c0 -1 -4 -2 -8 -3 -9 -1 -22 -10 -36 -23 -20 -19 -22 -35
-6 -50 16 -15 64 4 77 30 5 9 5 31 2 37 -6 7 -26 14 -29 9z"/></g><g fill="#B9836D" transform="translate(0,90) scale(0.5,-0.5)"><path d="M192 83 c-15 -12 -23 -16 -39 -16 -16 0 -22 3 -28 16 -3 5 -4 5 -16
4 -6 -1 -13 -2 -15 -3 -2 -1 -8 -4 -14 -7 -21 -10 -29 -15 -39 -26 -21 -22
-28 -21 128 -21 134 1 134 1 135 6 1 14 -32 38 -66 47 -29 9 -36 9 -46 0z"/></g></svg>