<svg xmlns="http://www.w3.org/2000/svg" viewBox="0 0 180 261"><g fill="#7B8366" transform="translate(0,261) scale(0.5,-0.5)"><path d="M178 418 c-3 -2 -3 -44 0 -49 2 -4 6 -24 6 -30 0 -6 -8 -3 -15 5 -7
9 -12 10 -14 5 -1 -2 2 -6 7 -12 22 -21 34 -41 40 -64 2 -8 4 -16 5 -17 4 -6
7 -73 5 -87 -1 -6 -3 -14 -4 -20 0 -5 -2 -9 -3 -9 -2 0 -9 31 -8 35 2 4 -2 20
-6 28 -11 25 -17 38 -17 40 0 12 -63 58 -82 60 -16 2 -25 4 -29 5 -2 1 -10 2
-17 2 -16 -1 -18 -5 -6 -19 4 -6 10 -15 13 -21 3 -6 7 -11 9 -11 1 -1 4 -5 6
-9 2 -4 5 -8 7 -9 2 0 3 -2 3 -3 0 -9 39 -40 71 -57 20 -11 26 -17 35 -33 11
-20 10 -69 -3 -86 -6 -9 -11 -26 -7 -26 3 0 12 8 12 12 0 6 35 39 44 42 10 3
39 19 46 25 3 3 8 7 11 10 10 8 32 42 34 52 0 4 3 11 5 16 7 15 4 23 -8 19
-22 -6 -50 -21 -50 -26 0 -1 -2 -3 -5 -4 -3 -1 -7 -5 -9 -9 -3 -4 -5 -7 -6 -7
-1 0 -5 -5 -8 -11 -4 -5 -9 -14 -12 -19 -3 -5 -6 -11 -6 -13 0 -4 -7 -17 -9
-17 -2 0 1 14 5 24 3 5 4 11 3 14 0 3 0 10 1 15 3 13 4 75 2 78 -9 11 -6 67 3
62 1 -1 1 0 0 4 -2 9 -2 13 2 22 3 6 3 8 1 10 -3 3 -9 -4 -14 -19 -6 -15 -7
-16 -11 -7 -6 13 -6 22 -1 24 3 1 4 3 4 7 0 7 -5 10 -8 6 -3 -6 -7 0 -10 14
-2 13 -2 14 3 25 5 11 5 17 0 13 -5 -4 -7 0 -7 10 0 10 -3 13 -8 10z"/></g><g fill="#C67E68" transform="translate(0,261) scale(0.5,-0.5)"><path d="M173 489 c-14 -6 -21 -22 -20 -44 1 -17 11 -40 11 -25 0 3 1 4 4 3
25 -11 52 2 53 25 1 11 -4 30 -7 30 -1 0 -2 1 -2 3 0 8 -26 14 -39 8z M110 394 c-16 -16 -15 -34 2 -48 16 -12 33 -10 45 6 11 15 9 24 -8
45 -4 5 -6 6 -17 6 -12 1 -12 1 -22 -9z M230 387 c-11 -10 -14 -14 -14 -24 0 -16 13 -32 29 -34 10 -1 11 -1
21 8 14 12 14 12 13 23 -2 18 -5 24 -13 30 -13 9 -24 8 -36 -3z"/></g></svg>