<svg xmlns="http://www.w3.org/2000/svg" viewBox="0 0 100 100" fill="currentColor"><g transform="translate(7.929,106.525) scale(0.12905,-0.12905)"><path d="M406 767 c-74 -29 -101 -100 -64 -171 20 -41 77 -135 87 -145 13 -13
25 0 78 89 47 79 55 108 43 150 -17 58 -91 97 -144 77z m62 -83 c32 -31 -4
-84 -45 -67 -40 17 -27 79 17 79 13 0 19 -3 28 -12z M242 504 c-84 -8 -142 -49 -142 -99 0 -45 39 -66 138 -73 65 -5 84
-9 97 -21 23 -21 5 -39 -69 -71 -85 -37 -134 -72 -156 -113 -14 -27 -17 -27
150 -27 148 0 148 0 167 16 86 73 120 152 90 212 -24 48 -70 65 -194 72 -75 3
-96 9 -101 24 -5 15 9 29 44 43 43 17 48 22 36 35 -7 6 -14 7 -60 2z"/></g></svg>